# xmcd
#
# Track frame offsets: 
#        150
#        24059
#        45820
#        58423
#        75846
#        98302
#        122710
#        148157
#        172574
#        188927
#
# Disc length: 2787 seconds
#
# Revision: 1
# Processed by: cddbd v1.5.2PL0 Copyright (c) Steve Scherf et al.
# Submitted via: ExactAudioCopyFreeDBPlugin 1.0
#
DISCID=680ae10a
DTITLE=Guitar Not So Slim - Bailout
DYEAR=2011
DGENRE=Blues
TTITLE0=Bailout
TTITLE1=Adarveing
TTITLE2=Never Be Younger
TTITLE3=Thank You Sir
TTITLE4=Is That You?
TTITLE5=I Wanna
TTITLE6=What's It Gonna Take?
TTITLE7=They're Doing Fine
TTITLE8=You Call It Lazy
TTITLE9=La Pequena Nur
EXTD=
EXTT0=
EXTT1=
EXTT2=
EXTT3=
EXTT4=
EXTT5=
EXTT6=
EXTT7=
EXTT8=
EXTT9=
PLAYORDER=
